<?xml version="1.0" encoding="UTF-8"?>
<svg width="420" height="600" viewBox="0 0 420 600" xmlns="http://www.w3.org/2000/svg" role="img" aria-label="Flat calculator illustration">
  <defs>
    <filter id="shadow" x="-50%" y="-50%" width="200%" height="200%">
      <feOffset dx="0" dy="12" result="off"/>
      <feGaussianBlur stdDeviation="18" result="blur"/>
      <feColorMatrix values="0 0 0 0 0    0 0 0 0 0    0 0 0 0 0    0 0 0 0.25" result="shadowColor"/>
      <feMerge>
        <feMergeNode in="shadowColor"/>
        <feMergeNode in="SourceGraphic"/>
      </feMerge>
    </filter>

    <linearGradient id="btnGrad" x1="0" x2="1">
      <stop offset="0" stop-color="#E45A92"/>
      <stop offset="1" stop-color="#FFACAC"/>
    </linearGradient>
    <linearGradient id="displayGrad" x1="0" x2="0" y1="0" y2="1">
      <stop offset="0" stop-color="#FFFFFF" stop-opacity="0.06"/>
      <stop offset="1" stop-color="#000000" stop-opacity="0.06"/>
    </linearGradient>
  </defs>

  <!-- background -->
  <rect width="100%" height="100%" rx="28" ry="28" fill="#F8F8FA"/>

  <!-- calculator body -->
  <g transform="translate(40,40)" filter="url(#shadow)">
    <rect x="0" y="0" width="340" height="520" rx="28" ry="28" fill="#3E1E68"/>
  </g>

  <!-- top bezel highlight -->
  <rect x="58" y="72" width="304" height="420" rx="22" ry="22" fill="none"/>

  <!-- display area -->
  <g transform="translate(58,86)">
    <rect x="0" y="0" width="304" height="84" rx="12" ry="12" fill="#5D2F77"/>
    <rect x="8" y="8" width="288" height="68" rx="8" ry="8" fill="url(#displayGrad)"/>
    <text x="20" y="54" font-family="Segoe UI, Roboto, Arial" font-size="36" font-weight="700" fill="#FFF" opacity="0.96">123,456</text>
  </g>

  <!-- small indicator dots -->
  <circle cx="330" cy="118" r="4" fill="#FFACAC" opacity="0.95"/>

  <!-- keypad -->
  <g transform="translate(58,190)">
    <!-- row & column sizes -->
    <!-- create 4 columns x 5 rows (including top function row) -->
    <!-- button size: 64x52 with 16 px gaps -->
    <!-- function row (4 buttons) -->
    <g id="buttons">
      <!-- functions -->
      <rect x="0" y="0" width="72" height="52" rx="10" ry="10" fill="url(#btnGrad)"/>
      <text x="36" y="34" font-family="Segoe UI, Roboto, Arial" font-size="18" text-anchor="middle" fill="#FFF" font-weight="700">C</text>

      <rect x="88" y="0" width="72" height="52" rx="10" ry="10" fill="#FFACAC"/>
      <text x="124" y="34" font-family="Segoe UI, Roboto, Arial" font-size="18" text-anchor="middle" fill="#3E1E68" font-weight="700">±</text>

      <rect x="176" y="0" width="72" height="52" rx="10" ry="10" fill="#E45A92"/>
      <text x="212" y="34" font-family="Segoe UI, Roboto, Arial" font-size="18" text-anchor="middle" fill="#3E1E68" font-weight="700">%</text>

      <rect x="264" y="0" width="72" height="52" rx="10" ry="10" fill="#5D2F77"/>
      <text x="300" y="34" font-family="Segoe UI, Roboto, Arial" font-size="18" text-anchor="middle" fill="#FFF" font-weight="700">÷</text>

      <!-- numeric rows -->
      <!-- row 1: 7 8 9 × -->
      <rect x="0" y="68" width="72" height="52" rx="10" ry="10" fill="#E45A92"/>
      <text x="36" y="102" font-family="Segoe UI, Roboto, Arial" font-size="20" text-anchor="middle" fill="#FFF" font-weight="700">7</text>

      <rect x="88" y="68" width="72" height="52" rx="10" ry="10" fill="#E45A92"/>
      <text x="124" y="102" font-family="Segoe UI, Roboto, Arial" font-size="20" text-anchor="middle" fill="#FFF" font-weight="700">8</text>

      <rect x="176" y="68" width="72" height="52" rx="10" ry="10" fill="#E45A92"/>
      <text x="212" y="102" font-family="Segoe UI, Roboto, Arial" font-size="20" text-anchor="middle" fill="#FFF" font-weight="700">9</text>

      <rect x="264" y="68" width="72" height="52" rx="10" ry="10" fill="#5D2F77"/>
      <text x="300" y="102" font-family="Segoe UI, Roboto, Arial" font-size="20" text-anchor="middle" fill="#FFF" font-weight="700">×</text>

      <!-- row 2: 4 5 6 - -->
      <rect x="0" y="136" width="72" height="52" rx="10" ry="10" fill="#E45A92"/>
      <text x="36" y="170" font-family="Segoe UI, Roboto, Arial" font-size="20" text-anchor="middle" fill="#FFF" font-weight="700">4</text>

      <rect x="88" y="136" width="72" height="52" rx="10" ry="10" fill="#E45A92"/>
      <text x="124" y="170" font-family="Segoe UI, Roboto, Arial" font-size="20" text-anchor="middle" fill="#FFF" font-weight="700">5</text>

      <rect x="176" y="136" width="72" height="52" rx="10" ry="10" fill="#E45A92"/>
      <text x="212" y="170" font-family="Segoe UI, Roboto, Arial" font-size="20" text-anchor="middle" fill="#FFF" font-weight="700">6</text>

      <rect x="264" y="136" width="72" height="52" rx="10" ry="10" fill="#5D2F77"/>
      <text x="300" y="170" font-family="Segoe UI, Roboto, Arial" font-size="20" text-anchor="middle" fill="#FFF" font-weight="700">−</text>

      <!-- row 3: 1 2 3 + -->
      <rect x="0" y="204" width="72" height="52" rx="10" ry="10" fill="#E45A92"/>
      <text x="36" y="238" font-family="Segoe UI, Roboto, Arial" font-size="20" text-anchor="middle" fill="#FFF" font-weight="700">1</text>

      <rect x="88" y="204" width="72" height="52" rx="10" ry="10" fill="#E45A92"/>
      <text x="124" y="238" font-family="Segoe UI, Roboto, Arial" font-size="20" text-anchor="middle" fill="#FFF" font-weight="700">2</text>

      <rect x="176" y="204" width="72" height="52" rx="10" ry="10" fill="#E45A92"/>
      <text x="212" y="238" font-family="Segoe UI, Roboto, Arial" font-size="20" text-anchor="middle" fill="#FFF" font-weight="700">3</text>

      <rect x="264" y="204" width="72" height="120" rx="14" ry="14" fill="#5D2F77"/>
      <text x="300" y="270" font-family="Segoe UI, Roboto, Arial" font-size="28" text-anchor="middle" fill="#FFF" font-weight="800">+</text>

      <!-- row 4: 0 (double width) . = -->
      <rect x="0" y="272" width="160" height="52" rx="14" ry="14" fill="#E45A92"/>
      <text x="80" y="306" font-family="Segoe UI, Roboto, Arial" font-size="20" text-anchor="middle" fill="#FFF" font-weight="700">0</text>

      <rect x="176" y="272" width="72" height="52" rx="10" ry="10" fill="#E45A92"/>
      <text x="212" y="306" font-family="Segoe UI, Roboto, Arial" font-size="20" text-anchor="middle" fill="#FFF" font-weight="700">.</text>

      <rect x="264" y="336" width="72" height="52" rx="14" ry="14" fill="#FFACAC"/>
      <text x="300" y="370" font-family="Segoe UI, Roboto, Arial" font-size="20" text-anchor="middle" fill="#3E1E68" font-weight="800">=</text>
    </g>
  </g>

  <!-- subtle branding line -->
  <text x="210" y="580" text-anchor="middle" font-family="Segoe UI, Roboto, Arial" font-size="12" fill="#8C78A0">custom palette • #3E1E68 #5D2F77 #E45A92 #FFACAC</text>
</svg>
